<mxfile host="www.draw.io" modified="2020-01-09T14:50:44.101Z" agent="Mozilla/5.0 (Macintosh; Intel Mac OS X 10_15_2) AppleWebKit/537.36 (KHTML, like Gecko) Chrome/79.0.3945.88 Safari/537.36" etag="U_H_GMMIm2Qgfob3YYbL" version="12.5.1" type="github">
  <diagram id="C5RBs43oDa-KdzZeNtuy" name="Page-1">
    <mxGraphModel dx="1004" dy="668" grid="1" gridSize="10" guides="1" tooltips="1" connect="1" arrows="1" fold="1" page="1" pageScale="1" pageWidth="827" pageHeight="1169" math="0" shadow="0">
      <root>
        <mxCell id="WIyWlLk6GJQsqaUBKTNV-0"/>
        <mxCell id="WIyWlLk6GJQsqaUBKTNV-1" parent="WIyWlLk6GJQsqaUBKTNV-0"/>
        <mxCell id="lqpBM2IWSvwyHKy44acA-0" value="" style="edgeStyle=orthogonalEdgeStyle;rounded=0;orthogonalLoop=1;jettySize=auto;html=1;exitX=0.5;exitY=1;exitDx=0;exitDy=0;strokeColor=#8599A3;" edge="1" parent="WIyWlLk6GJQsqaUBKTNV-1" source="lqpBM2IWSvwyHKy44acA-2">
          <mxGeometry relative="1" as="geometry">
            <mxPoint x="345.28571428571445" y="150.42857142857144" as="targetPoint"/>
          </mxGeometry>
        </mxCell>
        <mxCell id="lqpBM2IWSvwyHKy44acA-2" value="&lt;font color=&quot;#ffffff&quot; style=&quot;font-size: 16px&quot;&gt;store&lt;/font&gt;" style="rounded=1;whiteSpace=wrap;html=1;fillColor=#34495D;" vertex="1" parent="WIyWlLk6GJQsqaUBKTNV-1">
          <mxGeometry x="300" y="70" width="90" height="40" as="geometry"/>
        </mxCell>
        <mxCell id="lqpBM2IWSvwyHKy44acA-3" value="&lt;font color=&quot;#ffffff&quot; style=&quot;font-size: 16px&quot; face=&quot;Lucida Console&quot;&gt;页面或组件与store建立连接&lt;br&gt;&lt;/font&gt;" style="rounded=1;whiteSpace=wrap;html=1;fillColor=#39b882;strokeColor=none;" vertex="1" parent="WIyWlLk6GJQsqaUBKTNV-1">
          <mxGeometry x="250" y="150" width="176.25" height="70" as="geometry"/>
        </mxCell>
        <mxCell id="lqpBM2IWSvwyHKy44acA-4" value="" style="endArrow=classic;html=1;shadow=0;dashed=1;strokeColor=#8599A3;" edge="1" parent="WIyWlLk6GJQsqaUBKTNV-1">
          <mxGeometry width="50" height="50" relative="1" as="geometry">
            <mxPoint x="340" y="250" as="sourcePoint"/>
            <mxPoint x="460" y="250.5" as="targetPoint"/>
          </mxGeometry>
        </mxCell>
        <mxCell id="lqpBM2IWSvwyHKy44acA-8" value="" style="edgeStyle=orthogonalEdgeStyle;rounded=0;orthogonalLoop=1;jettySize=auto;html=1;exitX=0.5;exitY=1;exitDx=0;exitDy=0;strokeColor=#8599A3;entryX=0.5;entryY=0;entryDx=0;entryDy=0;" edge="1" parent="WIyWlLk6GJQsqaUBKTNV-1">
          <mxGeometry relative="1" as="geometry">
            <mxPoint x="300.0000000000001" y="220" as="sourcePoint"/>
            <mxPoint x="342.87" y="340" as="targetPoint"/>
            <Array as="points"/>
          </mxGeometry>
        </mxCell>
        <mxCell id="lqpBM2IWSvwyHKy44acA-21" value="&lt;span style=&quot;font-weight: normal&quot;&gt;&lt;font color=&quot;#da5861&quot;&gt;onload/onInit&lt;/font&gt;&lt;/span&gt;" style="text;strokeColor=none;fillColor=none;html=1;fontSize=24;fontStyle=1;verticalAlign=middle;align=center;" vertex="1" parent="WIyWlLk6GJQsqaUBKTNV-1">
          <mxGeometry x="480" y="230" width="100" height="40" as="geometry"/>
        </mxCell>
        <mxCell id="lqpBM2IWSvwyHKy44acA-25" value="" style="edgeStyle=orthogonalEdgeStyle;rounded=0;orthogonalLoop=1;jettySize=auto;html=1;strokeColor=#8599A3;" edge="1" parent="WIyWlLk6GJQsqaUBKTNV-1" source="lqpBM2IWSvwyHKy44acA-23" target="lqpBM2IWSvwyHKy44acA-24">
          <mxGeometry relative="1" as="geometry">
            <Array as="points">
              <mxPoint x="345" y="520"/>
              <mxPoint x="345" y="520"/>
            </Array>
          </mxGeometry>
        </mxCell>
        <mxCell id="lqpBM2IWSvwyHKy44acA-24" value="&lt;font color=&quot;#ffffff&quot; style=&quot;font-size: 16px&quot; face=&quot;Lucida Console&quot;&gt;注销订阅&lt;br&gt;&lt;/font&gt;" style="rounded=1;whiteSpace=wrap;html=1;fillColor=#39b882;strokeColor=none;" vertex="1" parent="WIyWlLk6GJQsqaUBKTNV-1">
          <mxGeometry x="256.87" y="550" width="176.25" height="69" as="geometry"/>
        </mxCell>
        <mxCell id="lqpBM2IWSvwyHKy44acA-26" value="" style="endArrow=classic;html=1;shadow=0;dashed=1;strokeColor=#8599A3;" edge="1" parent="WIyWlLk6GJQsqaUBKTNV-1">
          <mxGeometry width="50" height="50" relative="1" as="geometry">
            <mxPoint x="340" y="519.41" as="sourcePoint"/>
            <mxPoint x="460" y="519.91" as="targetPoint"/>
          </mxGeometry>
        </mxCell>
        <mxCell id="lqpBM2IWSvwyHKy44acA-27" value="&lt;span style=&quot;font-weight: normal&quot;&gt;&lt;font color=&quot;#da5861&quot;&gt;onUnload/didUnmount&lt;/font&gt;&lt;/span&gt;" style="text;strokeColor=none;fillColor=none;html=1;fontSize=24;fontStyle=1;verticalAlign=middle;align=center;" vertex="1" parent="WIyWlLk6GJQsqaUBKTNV-1">
          <mxGeometry x="530" y="500" width="100" height="40" as="geometry"/>
        </mxCell>
        <mxCell id="lqpBM2IWSvwyHKy44acA-29" value="" style="ellipse;whiteSpace=wrap;html=1;dashed=1;fillColor=none;" vertex="1" parent="WIyWlLk6GJQsqaUBKTNV-1">
          <mxGeometry x="426.25" y="295" width="250" height="160" as="geometry"/>
        </mxCell>
        <mxCell id="lqpBM2IWSvwyHKy44acA-23" value="&lt;font color=&quot;#ffffff&quot; style=&quot;font-size: 16px&quot; face=&quot;Lucida Console&quot;&gt;订阅响应dispatch&lt;br&gt;的处理函数&lt;br&gt;&lt;/font&gt;" style="rounded=1;whiteSpace=wrap;html=1;fillColor=#39b882;strokeColor=none;" vertex="1" parent="WIyWlLk6GJQsqaUBKTNV-1">
          <mxGeometry x="256.87" y="340" width="176.25" height="70" as="geometry"/>
        </mxCell>
        <mxCell id="lqpBM2IWSvwyHKy44acA-30" value="" style="endArrow=classic;html=1;strokeColor=#8599A3;" edge="1" parent="WIyWlLk6GJQsqaUBKTNV-1">
          <mxGeometry width="50" height="50" relative="1" as="geometry">
            <mxPoint x="146.87" y="374.41" as="sourcePoint"/>
            <mxPoint x="256.87" y="374.41" as="targetPoint"/>
          </mxGeometry>
        </mxCell>
        <mxCell id="lqpBM2IWSvwyHKy44acA-31" value="dispatch" style="text;strokeColor=none;fillColor=none;html=1;fontSize=24;fontStyle=0;verticalAlign=middle;align=center;dashed=1;" vertex="1" parent="WIyWlLk6GJQsqaUBKTNV-1">
          <mxGeometry x="50" y="355" width="100" height="40" as="geometry"/>
        </mxCell>
        <mxCell id="lqpBM2IWSvwyHKy44acA-36" value="&lt;font style=&quot;font-weight: normal ; font-size: 16px&quot;&gt;mapState&lt;/font&gt;" style="text;strokeColor=none;fillColor=#ffffff;html=1;fontSize=24;fontStyle=1;verticalAlign=middle;align=center;dashed=1;" vertex="1" parent="WIyWlLk6GJQsqaUBKTNV-1">
          <mxGeometry x="510" y="280" width="80" height="50" as="geometry"/>
        </mxCell>
        <mxCell id="lqpBM2IWSvwyHKy44acA-38" value="&lt;font style=&quot;font-weight: normal&quot;&gt;&lt;font style=&quot;font-size: 14px&quot;&gt;浅比较和JSON diff&lt;/font&gt;&lt;br&gt;&lt;/font&gt;" style="text;strokeColor=none;fillColor=#ffffff;html=1;fontSize=24;fontStyle=1;verticalAlign=middle;align=center;dashed=1;" vertex="1" parent="WIyWlLk6GJQsqaUBKTNV-1">
          <mxGeometry x="590" y="350" width="170" height="45" as="geometry"/>
        </mxCell>
        <mxCell id="lqpBM2IWSvwyHKy44acA-39" value="&lt;font style=&quot;font-weight: normal ; font-size: 16px&quot;&gt;setData(diffResult)&lt;/font&gt;" style="text;strokeColor=none;fillColor=#ffffff;html=1;fontSize=24;fontStyle=1;verticalAlign=middle;align=center;dashed=1;" vertex="1" parent="WIyWlLk6GJQsqaUBKTNV-1">
          <mxGeometry x="465.31" y="410" width="164.69" height="70" as="geometry"/>
        </mxCell>
      </root>
    </mxGraphModel>
  </diagram>
</mxfile>
